/* XPM */
static char *a0dd266774b546bbf6e6a7ad8e5661c5zme5abngaS39aatz[] = {
/* columns rows colors chars-per-pixel */
"16 16 30 1 ",
"  c #0E0C10",
". c #110F13",
"X c #141216",
"o c #151317",
"O c #151418",
"+ c #161519",
"@ c #17151B",
"# c #17161A",
"$ c #18171B",
"% c #18161C",
"& c #19171D",
"* c #19181C",
"= c #1A181E",
"- c #1B191F",
"; c #26211D",
": c #1C1A20",
"> c #1D1B21",
", c #1E1C22",
"< c #1F1D23",
"1 c #201E24",
"2 c #211F25",
"3 c #211E26",
"4 c #221F27",
"5 c #232028",
"6 c #242129",
"7 c #3F3730",
"8 c #214D00",
"9 c #66594F",
"0 c #378100",
"q c #5EDE00",
/* pixels */
" @@@;;;;;;;:@-O-",
".@@;7777777;@OX$",
"--;7;79997;7;-@*",
"-;79;7;7;7;97;OO",
"1;79;7;7;7;97;@X",
"5;79;7;7;7;97;*X",
">;79;99999;97;**",
";77;7;787;7;7;5>",
"5;79;98089;97;:<",
"%;79998q89997;:>",
";779978q87997;%-",
"2;79788q88797;:2",
"<;7980qqq0897;-2",
";779780q08797;$>",
"6;7;7780877;7;X@",
"4;79;97879;97;X@"
};
