/* XPM */
static char *e036ae99654842e3eecd2107608941962M4O7H6264GwVBgR[] = {
/* columns rows colors chars-per-pixel */
"16 16 29 1 ",
"  c #0E0C10",
". c #110F13",
"X c #141216",
"o c #151317",
"O c #151418",
"+ c #161519",
"@ c #17151B",
"# c #17161A",
"$ c #18171B",
"% c #18161C",
"& c #19171D",
"* c #19181C",
"= c #1A181E",
"- c #1B191F",
"; c #26211D",
": c #1C1A20",
"> c #1D1B21",
", c #1E1C22",
"< c #1F1D23",
"1 c #201E24",
"2 c #211F25",
"3 c #211E26",
"4 c #221F27",
"5 c #232028",
"6 c #242129",
"7 c #3F3730",
"8 c #214D00",
"9 c #66594F",
"0 c #378100",
/* pixels */
" @@@;;;;;;;-$-O-",
".@@;7777777;@OX$",
"--;7;79997;7;-@$",
"-;79;7;7;7;97;OO",
"1;79;7;7;7;97;$X",
"5;79;7;7;7;97;$X",
">;79;99999;97;$-",
";77;7;979;7;7;4>",
"5;79;97879;97;>>",
"&;79998089997;-4",
";779998089997;@-",
"4;79978087997;-1",
">;79780008797;-5",
";779;78087;97;@>",
"6;7;7;787;7;7;OO",
"5;79;99799;97;OO"
};
