/* XPM */
static char *_574e5c21b984f77d919220cd3508aaaAboSd5HEmYLlc7f3[] = {
/* columns rows colors chars-per-pixel */
"16 16 35 1 ",
"  c #0D0C0E",
". c #0E0D0F",
"X c #0E0C10",
"o c #0F0D11",
"O c #0F0E10",
"+ c #100E12",
"@ c #110F13",
"# c #121014",
"$ c #131115",
"% c #141216",
"& c #141317",
"* c #151317",
"= c #151418",
"- c #161418",
"; c #161519",
": c #17151B",
"> c #17161A",
", c #18171B",
"< c #18161C",
"1 c #19171D",
"2 c #19181C",
"3 c #1A181E",
"4 c #1B191F",
"5 c #1C1A20",
"6 c #1D1B21",
"7 c #1E1C22",
"8 c #1F1D23",
"9 c #201D25",
"0 c #201E24",
"q c #211F25",
"w c #211E26",
"e c #221F27",
"r c #222026",
"t c #232028",
"y c #242129",
/* pixels */
"X:::343,r064,6%3",
"@:,33:466%,4,%%1",
"36$=,%$3,=#,63,1",
"333$=%%=3,333$:%",
"q313:$333:36q6,%",
"r66r3:6r366q1,3%",
"636rr3r6:=%q1,,1",
"rq1343,3$%%336r6",
"e811,,===>%=%,4q",
"1*6011%,03=%1,10",
"%**11%%=43q3,%,1",
"qq16%@%,4333,16q",
"8985#. =11=6%34r",
"6111#..:10%31%,6",
"e5%X#=%.@3:3,#%:",
"e61@=,#.%41q%=%="
};
