/* XPM */
static char *f5b01be117d443ead7476d2ec1aacc66z46jeFxCplB3IxZM[] = {
/* columns rows colors chars-per-pixel */
"16 16 43 1 ",
"  c #0D0C0E",
". c #0E0C10",
"X c #0F0E10",
"o c #110F13",
"O c #121014",
"+ c #131115",
"@ c #141216",
"# c #141317",
"$ c #151317",
"% c #1E1C17",
"& c #151418",
"* c #161418",
"= c #161519",
"- c #17151B",
"; c #17161A",
": c #18171B",
"> c #18161C",
", c #19171D",
"< c #19181C",
"1 c #1A181E",
"2 c #1B191F",
"3 c #1C1A20",
"4 c #1D1B21",
"5 c #1E1C22",
"6 c #1F1D23",
"7 c #201E24",
"8 c #211F25",
"9 c #211E26",
"0 c #221F27",
"q c #232028",
"w c #242129",
"e c #343028",
"r c #734912",
"t c #5D5748",
"y c #515A62",
"u c #83003E",
"i c #996118",
"p c #950047",
"a c #807762",
"s c #5EDE00",
"d c #CB8120",
"f c #7C8A95",
"g c #A3B5C5",
/* pixels */
".---12etat72:2&1",
"o-:11etidat2-&@:",
"14+&-tietda:41::",
"111+-te%eta11@&&",
"81:1-e%seea484:@",
"q4r71%e%ete8,r1@",
"4yfggftetdddd::,",
"qffpggreiatai4q4",
"qffpggtetaata,27",
":yugpftetaatt:,7",
"@&yffetetatett:,",
"871f@etetat2et48",
"787yO teta&2*11q",
"2,,,@etetat1,@:4",
"w2@ eetetatt-O@-",
"841etttetaaat&@&"
};
