/* XPM */
static char *_ef10a5200c74e6aa4f71b890a109349NoHGxILMGE1Cy2Ad[] = {
/* columns rows colors chars-per-pixel */
"16 16 40 1 ",
"  c #0D0C0E",
". c #0E0D0F",
"X c #0E0C10",
"o c #0F0D11",
"O c #0F0E10",
"+ c #100E12",
"@ c #110F13",
"# c #121014",
"$ c #131115",
"% c #141216",
"& c #141317",
"* c #151317",
"= c #151418",
"- c #161418",
"; c #161519",
": c #17151B",
"> c #17161A",
", c #18171B",
"< c #18161C",
"1 c #19171D",
"2 c #19181C",
"3 c #1A181E",
"4 c #1B191F",
"5 c #3A0008",
"6 c #1C1A20",
"7 c #1D1B21",
"8 c #1E1C22",
"9 c #1F1D23",
"0 c #201E24",
"q c #211F25",
"w c #211E26",
"e c #221F27",
"r c #222026",
"t c #232028",
"y c #242129",
"u c #700010",
"i c #A00017",
"p c #D90523",
"a c #F33A54",
"s c #FF6B80",
/* pixels */
"X:::34330074,7%3",
"@:,33:477%,4,%%1",
"37$=,%$32=#,73,1",
"333$=%uipp333$:%",
"q313:uipaap7q7,%",
"r77ruipassap3,3%",
"737ruippasap3::3",
"rq13uipppapp37r7",
"q733uiippppi=240",
"1,47uuiippii3:37",
"%-=35uuiiiiu2%33",
"q033%5uuiiu3:24r",
"0q01#.5uuu=7=23r",
"4111#..:20%32=,7",
"y1-X#=%.@3=4:#%=",
"e71@=,#.%43q$=%:"
};
