/* XPM */
static char *result[] = {
/* columns rows colors chars-per-pixel */
"80 80 77 1 ",
"  c #4787C7",
". c #4887C7",
"X c #4788C7",
"o c #4888C7",
"O c #4687C8",
"+ c #4788C8",
"@ c #4B8BC9",
"# c #518FCA",
"$ c #4F90CD",
"% c #5591CC",
"& c #5B95CD",
"* c #5494D0",
"= c #5897D3",
"- c #5D9AD4",
"; c #6299CF",
": c #669DD2",
"> c #699ED2",
", c #629FD9",
"< c #6CA1D4",
"1 c #65A1DA",
"2 c #6AA6DE",
"3 c #73A5D5",
"4 c #7CAAD7",
"5 c #75A7D8",
"6 c #76A8D8",
"7 c #7AABDA",
"8 c #6DA9E1",
"9 c #73ADE4",
"0 c #7BB4EA",
"q c #81AFDC",
"w c #86B2DC",
"e c #8CB4DC",
"r c #93B9DE",
"t c #8BB6E0",
"y c #8EB8E1",
"u c #83BBEF",
"i c #92BBE2",
"p c #9ABEE1",
"a c #86BDF1",
"s c #89BFF2",
"d c #9DC1E3",
"f c #8CC3F5",
"g c #93C7F9",
"h c #96CAFC",
"j c #98CCFD",
"k c #A2C3E3",
"l c #A8C7E5",
"z c #ACC9E6",
"x c #A3C7E8",
"c c #A5C9E8",
"v c #ABCCEB",
"b c #B3CEE8",
"n c #B5D3EE",
"m c #BBD3EA",
"M c #B7D5F0",
"N c #BAD7F0",
"B c #BDD9F1",
"V c #C1D7EC",
"C c #C5DAED",
"Z c #CBDDEF",
"A c #C3DDF4",
"S c #CDDFF0",
"D c #CBE1F5",
"F c #CFE5F8",
"G c #D3E3F2",
"H c #D9E6F3",
"J c #DFEAF5",
"K c #D2E7F9",
"L c #D4E9FA",
"P c #DBEDFC",
"I c #DFF0FE",
"U c #E4EDF7",
"Y c #ECF3F9",
"T c #F1F6FB",
"R c #F5F9FC",
"E c #FFFFFF",
"W c None",
/* pixels */
"WWWWWWWWWWWWWWWWWWWWWWWWWWWWWWWWWWWWWWWWWWWWWWWWWWWWWWWWWWWWWWWWWWWWWWWWWWWWWWWW",
"WWWWWWWWWWWWWWWWWWWWWWWWWWWWWWWWWWWWWWWWWWWWWWWWWWWWWWWWWWWWWWWWWWWWWWWWWWWWWWWW",
"WWWWWWWWWWWWWWWWWWWWWWWWWWWWWWWWWWWWWWWWWWWWWWWWWWWWWWWWWWWWWWWWWWWWWWWWWWWWWWWW",
"WWWWWWWWWWWWWWWWWWWWWWWWWWWWWWWWWWWWWWWXXWWWWWWWWWWWWWWWWWWWWWWWWWWWWWWWWWWWWWWW",
"WWWWWWWWWWWWWWWWWWWWWWWWWWWWWWWWWWWWWWXXXXWWWWWWWWWWWWWWWWWWWWWWWWWWWWWWWWWWWWWW",
"WWWWWWWWWWWWWWWWWWWWWWWWX+WWWWWWWWWWWoX&& oWWWWWWWWWWWWWWWWWWWWWWWWWWWWWWWWWWWWW",
"WWWWWWWWWWWWWWWWWWWWWWWWXXoWWWWWWWWWWX@GH@XWWWWWWWWWWXXXWWWWWWWWWWWWWWWWWWWWWWWW",
"WWWWWWWWWWWWWWWWWWWWWWWWXXXXoWWWWWWWXXlEElXXWWWWWWW XXXXWWWWWWWWWWWWWWWWWWWWWWWW",
"WWWWWWWWWWWWWWWWWWWWWWWWo;koX+WWWWWXX4EEEE4 XWWWWW  op%XWWWWWWWWWWWWWWWWWWWWWWWW",
"WWWWWWWWWWWWWWWWWWWWWWWWowEJ<XooWWoX&TEEEET&XOWW+X 3UEwXWWWWWWWWWWWWWWWWWWWWWWWW",
"WWWWWWWWWWWWWWWWWWWWWWWXXzEERkooXWX@GEEEEEEG@   X&VEEEm XWWWWWWWWWWWWWWWWWWWWWWW",
"WWWWWWWWWWWWWWWWWWWWWWWX GEEEEH>XXXlEEEEEEEElXX@dREEEEUoXWWWWWWWWWWWWWWWWWWWWWWW",
"WWWWWWWWWWWWWWWWWWWWWWWXoREEEEERdo4EEEEEEEEEE44UEEEEEEE&XWWWWWWWWWWWWWWWWWWWWWWW",
"WWWWWWWWWWWWWWWWWWWWWWWX;EEEEEEEEHTEEEEEEEEEEEEEEEEEEEEeXWWWWWWWWWWWWWWWWWWWWWWW",
"WWWWWWWWWWWWXooWWWWWWWWowEEEEEEEEEEEEEEEEEEEEEEEEEEEEEEmX WWWWWWWX XWWWWWWWWWWWW",
"WWWWWWWWWWWWXXXXXXXXoW olEEEEEEEEEEEEEEEEEEEEEEEEEEEEEEYXXW XXXXXXXoWWWWWWWWWWWW",
"WWWWWWWWWWWWXX4e<# XX XXGEEEEEEEEEEEEEEEEEEEEEEEEEEEEEEE;X XX @3r4X+WWWWWWWWWWWW",
"WWWWWWWWWWWWWXpEEEYZze<@TEEEEEEEEEEEEEEEEEEEEEEEEEEEEEEEr<rzSYEEErXWWWWWWWWWWWWW",
"WWWWWWWWWWWWWX4EEEEEEEEEEEEEEEEEEEEEEEEEEEEEEEEEEEEEEEEEEEEEEEEEE4XWWWWWWWWWWWWW",
"WWWWWWWWWWWWWX;EEEEEEEEEEEEEEEEEEEEEEEEEEEEEEEEEEEEEEEEEEEEEEEEEE&XWWWWWWWWWWWWW",
"WWWWWWWWWWWWWX@REEEEEEEEEEEEEEEEEEEEEEEEEEEEEEEEEEEEEEEEEEEEEEEEE  WWWWWWWWWWWWW",
"WWWWWWWWWWWWWXoUEEEEEEEEEEEEEEEEEEEEEEEEEEEEEEEEEEEEEEEEEEEEEEEEJX WWWWWWWWWWWWW",
"WWWWWWWWWWWWWXoCEEEEEEEEEEEEEEEEEEEEEEEEEEEEEEEEEEEEEEEEEEEEEEEEV oWWWWWWWWWWWWW",
"WWWWWWWWWWWWWXozEEEEEEEEEEEEEEEEEEEEEEEEEEEEEEEEEEEEEEEEEEEEEEEElXXWWWWWWWWWWWWW",
"WWWWWWWWWWWWXXXeEEEEEEEEEEEEEEEEEUbe3&#oo%&3rmYEEEEEEEEEEEEEEEEEw.oWWWWWWWWWWWWW",
"WWWWWWWWXXXXoo%rEEEEEEEEEEEEEEEC<o    Xo++oXXX@4GEEEEEEEEEEEEEEE< .oXXoWWWWWWWWW",
"WWWWXXX XX#4lHEEEEEEEEEEEEEEER7+o@,0ufghhgfa9-@@orEEEEEEEEEEEEEEUmp3#XXoXXXooWWW",
"WWWXXXo>dGREEEEEEEEEEEEEEEEEE3@@0hjjjjjjjhhjjjg8o qEEEEEEEEEEEEEEEEEEYCk4%XXXWWW",
"WWWWXXmEEEEEEEEEEEEEEEEEEEEEzX%fjjjjjjjjjjjjjjjja@@mEEEEEEEEEEEEEEEEEEEEEZX.WWWW",
"WWWWWX&REEEEEEEEEEEEEEEEEEEE>X0jjjjjjjjjjjjjjjjjj0+>EEEEEEEEEEEEEEEEEEEET%XWWWWW",
"WWWWW+XpEEEEEEEEEEEEEEEEEEERX@hjjjjjjjjjjjjjjjjjjh@+REEEEEEEEEEEEEEEEEEEwXoWWWWW",
"WWWWWWX@JEEEEEEEEEEEEEEEEEEJX*jjjjjjjjjjjjjjjjjjjh*XJEEEEEEEEEEEEEEEEEEZoXWWWWWW",
"WWWWWWXX6EEEEEEEEEEEEEEEEEEZ+-jjjjjjjjjjjjjjjjjjjj-+ZEEEEEEEEEEEEEEEEET& WWWWWWW",
"WWWWWWWXoVEEEEEEEEEEEEEEEEEb+2jjjjjjjjjjjjjjjjjjjj1+bEEEEEEEEEEEEEEEEEwX WWWWWWW",
"WWWWWWWWo&REEEEEEEEEEEEEEEEd+8jjjjjjjjjjjjjjjjjjjj9XkEEEEEEEEEEEEEEEEC XWWWWWWWW",
"WWWWWWWWookEEEEEEEEEEEEEEEEw+0jjjjjjjjjjjjjjjjjjjh0XwEEEEEEEEEEEEEEET%XXWWWWWWWW",
"WWWWWWWWXo4EEEEEEEEEEEEEEEE3+fhhjjjjjjjjjjjjjjjjjja+3EEEEEEEEEEEEEEEY3  WWWWWWWW",
"WWWWWWoXokEEEEEEEEEEEEEEEEE&+fhhjjjjjjjjjjjjjjjjjjf+&EEEEEEEEEEEEEEEEEk@XXWWWWWW",
"WWWWWXo%ZEEEEEEEEEEEEEEEEEEo+hjjjjjjjjjjjjjjjjjjjjh@@REEEEEEEEEEEEEEEEEG&XXWWWWW",
"WWWWoo3YEEEEEEEEEEEEEEEEEEUX%jjjjjjjjjjjjjjjjjjjjjj@XYEEEEEEEEEEEEEEEEEEY4XXXWWW",
"WWXXodEEEEEEEEEEEEEEEEEEEEGX&jjjjjjjjjjjjjjjjjjjjjj= HEEEEEEEEEEEEEEEEEEEEzoXXWW",
"WXo%ZEEEEEEEEEEEEEEEEEEEEEmX1jjjjjjjjjjjjjjjjjjjjjj,XmEEEEEEEEEEEEEEEEEEEEEG&XXW",
"WXX3YEEEEEEEEEEEEEEEEEEEEElX2jjjjjjjjjjjjjjjjjjjjjj8XlEEEEEEEEEEEEEEEEEEEEEY3XXW",
"WWXX&ZEEEEEEEEEEEEEEEEEEEErX9jjjjjjjjjjjjjjjjjjjjjj9 rEEEEEEEEEEEEEEEEEEEES&XXWW",
"WWW+ opEEEEEEEEEEEEEEEEEEE4X0jjjjjjjjjjjjjjjjjjjjjj0X4EEEEEEEEEEEEEEEEEEElXXXWWW",
"WWWWWXo3YEEEEEEEEEEEEEEEEE;Xfjjjjjjjjjjjjjjjjjjjjjhf >EEEEEEEEEEEEEEEEET4 XXWWWW",
"WWWWWWoXXXXXXXXXXXXXXXXXXXXXXXXXoXXXXXXXXXXXXXXXXXXXXXXXXXXXXX XXXXXXXXXXXWWWWWW",
"WWWWWXXXXXXXXXXXXXXXXXXXXXXXXXXXoXXXXXXXXXXXXXXXXXXXXXXXXXXXXXXXXXXXXXXXXXXWWWWW",
"WWWWXX3FIIIIIIIIIIIIIIIIIIIIIIIIIIIIIIIIIIIIIIIIIIIIIIIIIIIIIIIIIIIIIIIIF5++WWWW",
"WWWWXXFUIIIIIIIIIIIIIIIIIIIIIIIIIIIIIIIIIIIIIIIIIIIIIIIIIIIIIIIIIIIIIIIIUF++WWWW",
"WWWWXXIIIIIIIIIIIIIIIIIIIIIIIIIIIIIIIIIIIIIIIIIIIIIIIIIIIIIIIIIIIIIIIIIIII++WWWW",
"WWWWXXIIIIIIIIIIIIIIIIIIIIIIIIIIIIIIIIIIIIIIIIIIIIIIIIIIIIIIIIIIIIIIIIIIIIX+WWWW",
"WWWWXXIIIIIIIIIIIIIIIIIIIIIIIIIIIIIIIIIIIIIIIIIIIIIIIIIIIIIIIIIIIIIIIIIIIIXXWWWW",
"WWWWXXIIIIIIIIIIIIIIIIIIIIIIIIIIIIIIIIIIIIIIIIIIIIIUIIIIIIIIIIIIIIIIIIIIIIXXWWWW",
"WWWWXXIIIIIIIIIIII=X@LIIIIIdXXyIIIIInXOdIIXX7III7XX<IIIIIII++7IIIIIIIIIIIIXXWWWW",
"WWWWXXIIIIIIIIIIIIwXXNIIIII3XX1IIIIIyXXDIIXX7III7XXXvIIIIII++7IIIIIIIIIIIIXXWWWW",
"WWWWXXIIIIIIIIIIIIvXXiIIIIP@XX+LIIII1+&IIIXX7III7XXX%LIIIIIXX7IIIIIIIIIIIIXXWWWW",
"WWWWXXIIIIIIIIIIIIP@X3IIIInO-@XnIIIP@+7IIIXX7III7XXXXwIIIIIXX7IIIIIIIIIIIIXXWWWW",
"WWWWXXIIIIIIIIIIIII<X@IIIIrOr1XrIIIN++vUIIXX7III7X+4X+DIIIIX+7IIIIIIIIIIIIXXWWWW",
"WWWWXXIIIIIIIIIIIIIdXXBIII;Xnro1IIId++LIIIXX7III7X+K$+<IIII+X7IIIIIIIIIIIIXXWWWW",
"WWWWX+IIIIIIIIIIIIIAXXdIILX@PnX@LII4+-IIIIXX7III7XXIc++cIIIXX7IIIIIIIIIIIIXXWWWW",
"WWWWXXIIIIIIIIIIIIII*X7IIvX<IL@XnII$+dIIIIXX7III7XXII<+%LIIXX7IIIIIIIIIIIIXXWWWW",
"WWWWXXIIIIIIIIIIIIII7@$II7XdII<+yIDOXMIIIIXX7III7XXIIF$XwIIXX7IIIIIIIIIIIIXXWWWW",
"WWWWX+IIIIIIIIIIIIIIvo@DI*OMIIr+<Ixo@IIIIIXX7III7XXIIId+@BIXX7IIIIIIIIIIIIXXWWWW",
"WWWWXXIIIIIIIIIIIIIIL+XcD+$PIInX+P7+5IIIII+X7III7+XIIII<o>IXX7IIIIIIIIIIIIXXWWWW",
"WWWWXXIIIIIIIIIIIIIII<X7d+5IIIP@OM&@dIIIIIXX7III7XXIIIIDoXd+X7IIIIIIIIIIIIXXWWWW",
"WWWWXXIIIIIIIIIIIIIIIiX&5+dIIII<XwX+DIIIIIXX7III7XXIIIIIiX%XX7IIIIIIIIIIIIXXWWWW",
"WWWWXXIIIIIIIIIIIIIIINXX@+BIIIId @X&IIIIII+X7III7XXIIIIIP-XXX7IIIIIIIIIIIIXXWWWW",
"WWWWXXIIIIIIIIIIIIIIII%XX%IIIIIBXXXwIIIIIIXX7III7OOIIIIIIB@XX7IIIIIIIIIIIIXXWWWW",
"WWWWXXIIIIIIIIIIIIIIII7XX7IIIIII%XXvIIIIIIXX7III7OOIIIIIIIyXX7IIIIIIIIIIIIXXWWWW",
"WWWWXXIIIIIIIIIIIIIIIIIIIIIIIIIIIIIIIIIIIIIIIIIIIIIIIIIIIIIIIIIIIIIIIIIIIIXXWWWW",
"WWWWXXIIIIIIIIIIIIIIIIIIIIIIIIIIIIIIIIIIIIIIIIIIIIIIIIIIIIIIIIIIIIIIIIIIIIXXWWWW",
"WWWWXXIIIIIIIIIIIIIIIIIIIIIIIIIIIIIIIIIIIIIIIIIIIIIIIIIIIIIIIIIIIIIIIIIIIIXXWWWW",
"WWWWXXIIIIIIIIIIIIIIIIIIIIIIIIIIIIIIIIIIIIIIIIIIIIIIIIIIIIIIIIIIIIIIIIIIIIXXWWWW",
"WWWWXXFIIIIIIIIIIIIIIIIIIIIIIIIIIIIIIIIIIIIIIIIIIIIIIIIIIIIIIIIIIIIIIIIIIFXXWWWW",
"WWWW+X5FIIIIIIIIIIIIIIIIIIIIIIIIIIIIIIIIIIIIIIIIIIIIIIIIIIIIIIIIIIIIIIIIF5XXWWWW",
"WWWWWXXXXXXXXXXXXXXXXXXXXXXXXXXXXXXXXXXXXXXXXXXXOXXXXXXXXXXXXXXX+XXXXXXXXXXWWWWW",
"WWWWWW+XXXXXXXXXXXXXXXXXXXXXXXXXXXXXXXXXXXXXXXXXXXXXXXXXXXXXXXXXXXXXXXXXXXWWWWWW",
"WWWWWWWWWWWWWWWWWWWWWWWWWWWWWWWWWWWWWWWWWWWWWWWWWWWWWWWWWWWWWWWWWWWWWWWWWWWWWWWW",
"WWWWWWWWWWWWWWWWWWWWWWWWWWWWWWWWWWWWWWWWWWWWWWWWWWWWWWWWWWWWWWWWWWWWWWWWWWWWWWWW"
};
